<svg xmlns="http://www.w3.org/2000/svg" width="48" height="48" viewBox="0 0 24 24" fill="none" stroke="#1F2937" stroke-width="2" stroke-linecap="round" stroke-linejoin="round">
  <path d="M12 4.5c-2.1 0-4.1.7-5.5 1.9C5 5.3 4 4 4 4c0 0-.8 3.5.2 6.1C3.4 11.5 3 13.2 3 15c0 3.9 4 7 9 7s9-3.1 9-7c0-1.8-.4-3.5-1.2-4.9 1-2.6.2-6.1.2-6.1 0 0-1 1.3-2.5 2.4-1.4-1.2-3.4-1.9-5.5-1.9z" />
  <circle cx="8.5" cy="13" r="1.5" fill="#1F2937" stroke="none" />
  <circle cx="15.5" cy="13" r="1.5" fill="#1F2937" stroke="none" />
  <rect x="10.5" y="16" width="3" height="2" rx="1" fill="#1F2937" stroke="none" />
  <path d="M4.5 14 L1 15.5" />
  <path d="M5.5 17 L2 18.5" />
  <path d="M19.5 14 L23 15.5" />
  <path d="M18.5 17 L22 18.5" />
</svg>
