<svg xmlns="http://www.w3.org/2000/svg" width="48" height="48" viewBox="0 0 24 24" fill="none" stroke="#1F2937" stroke-width="2" stroke-linecap="round" stroke-linejoin="round">
  <path d="M17 7A2.5 2.5 0 0 0 14.7 8.5H9.3A2.5 2.5 0 0 0 7 7a2.5 2.5 0 0 0-2.5 2.5c0 1.1.7 2.1 1.7 2.5-.9.4-1.7 1.4-1.7 2.5A2.5 2.5 0 0 0 7 17a2.5 2.5 0 0 0 2.3-1.5h5.4A2.5 2.5 0 0 0 17 17a2.5 2.5 0 0 0 2.5-2.5c0-1.1-.8-2.1-1.7-2.5.9-.4 1.7-1.4 1.7-2.5A2.5 2.5 0 0 0 17 7z"/>
  <line x1="10" y1="12" x2="14" y2="12" stroke="#1FA7A0" stroke-width="2" />
</svg>
